<?xml version="1.0"?>
<svg xmlns="http://www.w3.org/2000/svg" height="18px" viewBox="0 0 512 512" width="18px"><path d="m256 0c-139.488281 0-256 116.140625-256 256 0 139.488281 116.140625 256 256 256 139.488281 0 256-116.140625 256-256 0-139.488281-116.140625-256-256-256zm159.101562 96.902344c85.644532 85.644531 89.054688 217.871094 10.261719 307.246094l-99.679687-99.675782c21.652344-19.25 35.316406-47.292968 35.316406-78.472656v-135h-210v38.789062l-43.148438-43.148437c89.375-78.792969 221.601563-75.382813 307.25 10.261719zm-159.101562 204.097656c-41.355469 0-75-33.644531-75-75v-23.785156l95.824219 95.820312c-6.617188 1.917969-13.597657 2.964844-20.824219 2.964844zm75-150h-150v-30h150zm-128.785156 30h128.785156v45c0 22.910156-10.335938 43.441406-26.578125 57.210938zm-105.316406 234.097656c-85.644532-85.644531-89.054688-217.871094-10.261719-307.246094l64.363281 64.363282v53.785156c0 52.804688 39.183594 96.621094 90 103.925781v61.074219h-60v30h150v-30h-60v-61.074219c10.238281-1.472656 20.007812-4.425781 29.074219-8.636719l104.074219 104.070313c-89.375 78.792969-221.601563 75.382813-307.25-10.261719zm0 0" fill="#a5a5a5"/></svg>
