<?xml version="1.0"?>
<svg xmlns="http://www.w3.org/2000/svg" height="18px" viewBox="0 0 512 512" width="18px"><path d="m256 0c-140.960938 0-256 115.050781-256 256 0 140.960938 115.050781 256 256 256 140.960938 0 256-115.050781 256-256 0-140.960938-115.050781-256-256-256zm-226 256c0-56.921875 21.160156-108.988281 56.019531-148.765625l103.765625 103.765625h-128.785156v90h218.785156l124.984375 124.980469c-39.78125 34.859375-91.847656 56.019531-148.769531 56.019531-124.617188 0-226-101.382812-226-226zm219.785156 15h-68.785156v-30h38.785156zm12.429688-30h128.785156v30h-98.785156zm-171.214844 30v-30h60v30zm334.980469 133.765625-103.765625-103.765625h98.785156c0-10.378906 0-92.9375 0-105 0-24.8125-20.1875-45-45-45h-90c-8.269531 0-15-6.730469-15-15s6.730469-15 15-15h30v-30h-30c-24.8125 0-45 20.1875-45 45s20.1875 45 45 45h90c8.269531 0 15 6.730469 15 15v15h-158.785156l-124.984375-124.980469c39.78125-34.859375 91.847656-56.019531 148.769531-56.019531 124.617188 0 226 101.382812 226 226 0 56.921875-21.160156 108.988281-56.019531 148.765625zm0 0" fill="#a5a5a5"/></svg>
