<svg xmlns:dc="http://purl.org/dc/elements/1.1/" xmlns:cc="http://creativecommons.org/ns#" xmlns:rdf="http://www.w3.org/1999/02/22-rdf-syntax-ns#" xmlns:svg="http://www.w3.org/2000/svg" xmlns="http://www.w3.org/2000/svg" id="svg458" viewBox="0 0 1024 768" height="768px" width="1024px" version="1.1">
  <metadata id="metadata464">
    <rdf:rdf>
      <cc:work rdf:about="">
        <dc:format>image/svg+xml</dc:format>
        <dc:type rdf:resource="http://purl.org/dc/dcmitype/StillImage"></dc:type>
      </cc:work>
    </rdf:rdf>
  </metadata>
  <defs id="defs462"></defs>
  <g id="logo-group">
    <g id="title" style="font-style:normal;font-weight:700;font-size:72px;line-height:1;font-family:'Brandmark1 Bold';font-variant-ligatures:none;text-align:center;text-anchor:middle" aria-label="socif">
      <path id="path466" style="font-style: normal; font-weight: 700; font-size: 72px; line-height: 1; font-family: &quot;Brandmark1 Bold&quot;; font-variant-ligatures: none; text-align: center; text-anchor: middle; fill: rgb(255, 42, 19);" d="m 453.28737,122.952 c 7.272,0 13.176,-5.904 13.176,-13.176 0,-7.272 -5.904,-13.176 -13.176,-13.176 h -3.024 c -1.08,0 -1.872,-0.864 -1.872,-1.872 0,-1.08 0.792,-1.944 1.872,-1.944 h 15.048 V 81.48 h -15.048 c -7.272,0 -13.176,5.976 -13.176,13.248 0,7.272 5.904,13.176 13.176,13.176 h 3.024 c 1.008,0 1.872,0.864 1.872,1.872 0,1.08 -0.864,1.872 -1.872,1.872 h -16.848 v 11.304 z" transform="translate(0 85.1432195311742) translate(252.0000000000001 264.50370197451593) scale(3.371915831793274) translate(-436.43937 -81.48)"></path>
      <path id="path468" style="font-style: normal; font-weight: 700; font-size: 72px; line-height: 1; font-family: &quot;Brandmark1 Bold&quot;; font-variant-ligatures: none; text-align: center; text-anchor: middle; fill: rgb(255, 42, 19);" d="m 488.17137,123.024 c 2.736,0 5.472,-0.576 7.992,-1.584 2.448,-1.08 4.68,-2.52 6.552,-4.392 1.872,-1.944 3.312,-4.104 4.392,-6.552 1.08,-2.52 1.584,-5.256 1.584,-7.992 0,-2.808 -0.504,-5.472 -1.584,-7.992 -1.08,-2.448 -2.52,-4.68 -4.392,-6.552 -1.944,-1.872 -4.104,-3.312 -6.552,-4.392 -2.52,-1.08 -5.256,-1.584 -7.992,-1.584 -2.73599,0 -5.472,0.504 -7.992,1.584 -2.44799,1.08 -4.608,2.52 -6.552,4.392 -1.87199,1.944 -3.31199,4.104 -4.392,6.552 -1.008,2.52 -1.584,5.184 -1.584,7.992 0,2.736 0.576,5.472 1.584,7.992 1.08001,2.448 2.52001,4.608 4.392,6.552 1.944,1.872 4.10401,3.312 6.552,4.392 2.52,1.008 5.25601,1.584 7.992,1.584 z m 0,-30.24 c 5.328,0 9.72,4.392 9.72,9.72 0,5.328 -4.392,9.72 -9.72,9.72 -5.328,0 -9.72,-4.392 -9.72,-9.72 0,-5.328 4.392,-9.72 9.72,-9.72 z" transform="translate(0 85.1432195311742) translate(357.2442369419317 266.2031475537397) scale(3.371915831793274) translate(-467.65137 -81.984)"></path>
      <path id="path470" style="font-style: normal; font-weight: 700; font-size: 72px; line-height: 1; font-family: &quot;Brandmark1 Bold&quot;; font-variant-ligatures: none; text-align: center; text-anchor: middle; fill: rgb(255, 42, 19);" d="m 530.92137,123.096 c 6.69601,0 13.03201,-3.312 16.92,-8.928 l -8.928,-6.12 c -1.79999,2.664 -4.82399,4.248 -7.992,4.248 -5.39999,0 -9.72,-4.392 -9.72,-9.72 0,-5.4 4.32001,-9.72 9.72,-9.72 3.09601,0 6.12001,1.512 7.92,4.104 l 8.856,-6.192 c -1.872,-2.664 -4.39199,-4.824 -7.19999,-6.336 -2.952,-1.584 -6.264,-2.376 -9.57601,-2.376 -2.80799,0 -5.47199,0.504 -7.99199,1.584 -2.44801,1.08 -4.68001,2.52 -6.552,4.392 -1.87201,1.944 -3.384,4.104 -4.39201,6.552 -1.08,2.52 -1.584,5.256 -1.584,7.992 0,2.736 0.504,5.472 1.584,7.992 1.00801,2.448 2.52,4.608 4.39201,6.552 1.87199,1.872 4.10399,3.312 6.552,4.392 2.52,1.008 5.184,1.584 7.99199,1.584 z" transform="translate(0 85.1432195311742) translate(501.3936387510941 266.44592549362886) scale(3.371915831793274) translate(-510.40137 -82.056)"></path>
      <path id="path472" style="font-style: normal; font-weight: 700; font-size: 72px; line-height: 1; font-family: &quot;Brandmark1 Bold&quot;; font-variant-ligatures: none; text-align: center; text-anchor: middle; fill: rgb(255, 42, 19);" d="m 550.54025,122.52 h 10.872 V 80.976 l -10.872,3.6 z" transform="translate(0 85.1432195311742) translate(636.7385636935446 262.8042563952921) scale(3.371915831793274) translate(-550.54025 -80.976)"></path>
      <path id="path474" style="font-style: normal; font-weight: 700; font-size: 72px; line-height: 1; font-family: &quot;Brandmark1 Bold&quot;; font-variant-ligatures: none; text-align: center; text-anchor: middle; fill: rgb(255, 42, 19);" d="m 579.20637,82.56 v -0.072 c 0,-6.264 5.11201,-11.448 11.448,-11.448 v -10.8 c -3.024,0 -5.976,0.648 -8.712,1.8 -2.664,1.08 -5.04,2.664 -7.05599,4.752 -2.01601,2.016 -3.672,4.392 -4.75201,7.056 -1.15199,2.736 -1.72799,5.688 -1.72799,8.64 v 40.032 h 10.79999 V 92.64 h 11.448 V 82.56 Z" transform="translate(0 85.1432195311742) translate(696.9816502934215 192.8842097072268) scale(3.371915831793274) translate(-568.40638 -60.24)"></path>
    </g>
    <g id="tagline" style="font-style:normal;font-weight:400;font-size:32px;line-height:1;font-family:Montserrat;font-variant-ligatures:none;text-align:center;text-anchor:middle"></g>
  </g>
</svg>
